<?xml version="1.0" encoding="UTF-8"?>
<svg id="Layer_1" data-name="Layer 1" xmlns="http://www.w3.org/2000/svg" xmlns:xlink="http://www.w3.org/1999/xlink" viewBox="0 0 32 32">
  <defs>
    <style>
      .cls-1 {
        fill: url(#linear-gradient);
      }

      .cls-2 {
        fill: #09182f;
      }

      .cls-3 {
        fill: url(#linear-gradient-3);
      }

      .cls-4 {
        fill: url(#linear-gradient-2);
      }
    </style>
    <linearGradient id="linear-gradient" x1="4.94" y1="18.95" x2="22.8" y2="9.47" gradientUnits="userSpaceOnUse">
      <stop offset="0" stop-color="#8e7fea"/>
      <stop offset="1" stop-color="#76d1ff"/>
    </linearGradient>
    <linearGradient id="linear-gradient-2" x1="7.23" y1="23.26" x2="25.09" y2="13.78" xlink:href="#linear-gradient"/>
    <linearGradient id="linear-gradient-3" x1="7.51" y1="24.07" x2="25.37" y2="14.59" xlink:href="#linear-gradient"/>
  </defs>
  <rect class="cls-2" x="0" y="0" width="32" height="32" rx="16" ry="16"/>
  <g>
    <path class="cls-1" d="M15.81,12.85v9.28s0,0,0,0c-1.65,0-2.99-1.34-2.99-2.99v-2.06s-4.65,0-4.65,0v5.05h0c-1.65,0-2.99-1.34-2.99-2.99V9.86h0c1.65,0,2.99,1.34,2.99,2.99v1.82h4.65v-4.81h0c1.65,0,2.99,1.34,2.99,2.99Z"/>
    <path class="cls-4" d="M15.52,12.77c.52-.95,1.26-1.69,2.19-2.22,.94-.53,2-.8,3.19-.8,1.46,0,2.7,.38,3.74,1.15,1.04,.77,1.73,1.82,2.08,3.15h-1.72c-.79,0-1.57-.27-2.14-.82-.14-.13-.29-.25-.46-.35-.45-.27-.96-.4-1.53-.4-.92,0-1.67,.32-2.24,.96-.57,.64-.86,1.5-.86,2.57s.29,1.93,.86,2.57c.57,.64,1.32,.96,2.24,.96,.57,0,1.08-.13,1.53-.4,.17-.1,.32-.22,.46-.35,.57-.55,1.35-.82,2.14-.82h1.72c-.35,1.33-1.04,2.38-2.08,3.14-1.04,.76-2.28,1.15-3.74,1.15-1.19,0-2.25-.27-3.19-.8-.94-.53-1.67-1.27-2.19-2.21-.52-.94-.79-2.02-.79-3.23s.26-2.29,.79-3.24Z"/>
    <path class="cls-3" d="M26.78,15.51h-4.11c-.44,0-.86-.19-1.18-.49-.24-.23-.57-.37-.94-.37-.69,0-1.32,.64-1.33,1.33-.01,.75,.6,1.37,1.35,1.37,.38,0,.72-.15,.96-.4,.3-.3,.72-.46,1.14-.46h4.11c.05-.32,.05-.65,0-.97Z"/>
  </g>
</svg>